<?xml version="1.0" encoding="utf-8"?>
<!-- Generator: Adobe Illustrator 23.0.1, SVG Export Plug-In . SVG Version: 6.00 Build 0)  -->
<svg version="1.1" width="300px" height="200px" xmlns="http://www.w3.org/2000/svg" xmlns:xlink="http://www.w3.org/1999/xlink" x="0px" y="0px"
	 viewBox="0 0 250 150" style="enable-background:new 0 0 250 150;" xml:space="preserve">
<style type="text/css">
	.st0{fill:#8A5D3B;}
	.st1{fill:#BAC639;}
</style>
<g id="Steam">
</g>
<g id="Motto">
</g>
<g id="Circles">
</g>
<g id="branch">
	<g>
		<path class="st0" d="M126.27,43.28c-1.2-6.86-1.83-7.89-1.61-8.02c0.92-0.54,6.65,45.5,9.76,64.67
			c0.76,4.69-18.08,7.62-19.04-0.26l9.28-64.41"/>
		<circle class="st1" cx="102.46" cy="81.12" r="7.37"/>
		<circle class="st1" cx="95.08" cy="61.75" r="7.37"/>
		<circle class="st1" cx="102.46" cy="39.95" r="7.37"/>
		<circle class="st1" cx="141.71" cy="39.95" r="7.37"/>
		<circle class="st1" cx="124.56" cy="30.61" r="3.49"/>
		<circle class="st1" cx="113.31" cy="52.4" r="3.49"/>
		<circle class="st1" cx="136.65" cy="54.38" r="3.49"/>
		<circle class="st1" cx="136.65" cy="26.95" r="2.66"/>
		<circle class="st1" cx="108.59" cy="27.95" r="2.66"/>
		<circle class="st1" cx="124.28" cy="18.66" r="7.37"/>
		<circle class="st1" cx="154.24" cy="61.75" r="7.37"/>
		<circle class="st1" cx="146.87" cy="81.12" r="7.37"/>
		<polygon class="st0" points="124.37,65.29 127.85,74.3 143.59,63.23 		"/>
		<polygon class="st0" points="121.82,73.38 124.84,65.41 105.93,62.63 		"/>
	</g>
	<g>
		<path class="st1" d="M55.54,120.4v-10.62c0-0.56,0.43-0.99,0.99-0.99c0.56,0,1.01,0.43,1.01,0.99v4.32h4.66v-4.32
			c0-0.56,0.43-0.99,0.99-0.99c0.56,0,1.01,0.43,1.01,0.99v10.62c0,0.56-0.45,0.99-1.01,0.99c-0.56,0-0.99-0.43-0.99-0.99v-4.32
			h-4.66v4.32c0,0.56-0.45,0.99-1.01,0.99C55.98,121.39,55.54,120.96,55.54,120.4z"/>
		<path class="st1" d="M68.94,120.07c-0.77-0.79-1.24-1.91-1.24-3.17c0-1.22,0.47-2.29,1.24-3.15c0.81-0.85,1.85-1.37,3.1-1.37
			c1.19,0,2.27,0.52,3.01,1.37c0.81,0.87,1.26,1.93,1.26,3.15c0,1.26-0.45,2.38-1.26,3.17c-0.74,0.85-1.82,1.37-3.01,1.37
			C70.79,121.44,69.75,120.92,68.94,120.07z M69.66,116.91c0,0.77,0.23,1.4,0.65,1.91c0.45,0.43,1.04,0.67,1.73,0.67
			c0.63,0,1.21-0.23,1.66-0.67c0.45-0.5,0.7-1.13,0.7-1.91c0-0.74-0.25-1.39-0.7-1.87c-0.45-0.4-1.03-0.68-1.66-0.68
			c-0.68,0-1.28,0.29-1.73,0.68C69.89,115.52,69.66,116.17,69.66,116.91z"/>
		<path class="st1" d="M79.36,123.8v-6.88c0,0,0,0,0-0.02v-3.57c0-0.52,0.43-0.95,0.96-0.95c0.5,0,0.92,0.34,0.99,0.74
			c0.67-0.43,1.53-0.74,2.45-0.74c2.39,0,4.36,2.05,4.36,4.52s-1.96,4.47-4.36,4.47c-0.9,0-1.76-0.27-2.41-0.74v3.17
			c0,0.5-0.45,0.97-1.03,0.97C79.79,124.77,79.36,124.31,79.36,123.8z M81.34,116.91c0,0.7,0.23,1.39,0.7,1.8
			c0.45,0.5,1.04,0.76,1.71,0.76c0.61,0,1.22-0.25,1.69-0.76c0.41-0.41,0.7-1.1,0.7-1.8s-0.29-1.35-0.7-1.82
			c-0.47-0.49-1.08-0.74-1.69-0.74c-0.67,0-1.26,0.25-1.71,0.74C81.57,115.55,81.34,116.2,81.34,116.91z"/>
		<path class="st1" d="M90.43,116.89c0.02-2.45,1.93-4.5,4.39-4.5c2.34,0,4.2,1.75,4.34,4.18c0,0.02,0,0.05,0,0.09s0,0.13-0.02,0.16
			c-0.05,0.43-0.43,0.72-0.94,0.72h-5.73c0.09,0.41,0.29,0.88,0.61,1.19c0.38,0.43,1.1,0.76,1.73,0.81
			c0.65,0.05,1.42-0.11,1.87-0.45c0.38-0.4,1.12-0.34,1.35-0.05c0.23,0.25,0.41,0.79,0,1.17c-0.88,0.81-1.95,1.19-3.22,1.19
			C92.35,121.37,90.45,119.34,90.43,116.89z M92.39,116.01h5.1c-0.18-0.72-1.1-1.78-2.67-1.91
			C93.29,114.17,92.53,115.27,92.39,116.01z"/>
		<path class="st1" d="M115.04,116.91v3.53c0,0.52-0.43,0.95-0.96,0.95c-0.47,0-0.83-0.34-0.94-0.77c-0.68,0.49-1.5,0.77-2.4,0.77
			c-1.22,0-2.29-0.5-3.06-1.31c-0.77-0.83-1.22-1.94-1.22-3.17c0-1.24,0.45-2.36,1.22-3.17c0.77-0.83,1.84-1.35,3.06-1.35
			c0.9,0,1.71,0.31,2.4,0.79c0.11-0.45,0.47-0.79,0.94-0.79c0.52,0,0.96,0.43,0.96,0.97V116.91z M113.13,116.91
			c0-0.76-0.27-1.4-0.7-1.85c-0.43-0.49-1.04-0.74-1.67-0.74c-0.65,0-1.26,0.25-1.67,0.74c-0.43,0.45-0.68,1.1-0.68,1.85
			c0,0.74,0.25,1.39,0.68,1.85c0.41,0.45,1.03,0.7,1.67,0.7c0.63,0,1.24-0.25,1.67-0.7C112.86,118.29,113.13,117.64,113.13,116.91z"
			/>
		<path class="st1" d="M125.89,116.13v4.3c0,0.52-0.41,0.95-0.94,0.95c-0.5,0-0.95-0.43-0.95-0.95v-4.3c0-1.01-0.85-1.82-1.87-1.82
			c-1.01,0-1.8,0.81-1.8,1.82v4.3c0,0.05,0,0.11-0.04,0.18c-0.09,0.43-0.49,0.77-0.95,0.77c-0.54,0-0.95-0.43-0.95-0.95v-4.3v-2.79
			c0-0.52,0.41-0.95,0.95-0.95c0.38,0,0.72,0.22,0.88,0.56c0.54-0.34,1.21-0.56,1.91-0.56C124.22,112.39,125.89,114.1,125.89,116.13
			z"/>
		<path class="st1" d="M137.21,120.42c0,0.52-0.43,0.97-0.97,0.97c-0.49,0-0.86-0.34-0.95-0.77c-0.68,0.47-1.55,0.77-2.45,0.77
			c-2.43,0-4.38-2.05-4.38-4.48c0-2.47,1.94-4.52,4.38-4.52c0.88,0,1.75,0.29,2.41,0.76v-3.39c0-0.52,0.43-0.97,0.99-0.97
			c0.54,0,0.97,0.45,0.97,0.97v7.13c0,0,0,0,0,0.02V120.42z M132.84,114.35c-0.65,0-1.24,0.27-1.69,0.74
			c-0.45,0.45-0.72,1.1-0.72,1.82c0,0.68,0.27,1.33,0.72,1.78c0.45,0.47,1.04,0.74,1.69,0.74c0.67,0,1.24-0.27,1.69-0.74
			c0.45-0.45,0.72-1.1,0.72-1.78c0-0.72-0.27-1.37-0.72-1.82C134.08,114.62,133.5,114.35,132.84,114.35z"/>
		<path class="st1" d="M146.53,120.4v-10.62c0-0.54,0.43-0.99,0.99-0.99c0.56,0,1.01,0.45,1.01,0.99v9.61h4.88
			c0.52,0,0.99,0.45,0.99,1.01c0,0.54-0.47,0.99-0.99,0.99h-5.83c-0.04,0-0.04,0-0.04,0c-0.02,0-0.02,0-0.02,0
			C146.97,121.39,146.53,120.94,146.53,120.4z"/>
		<path class="st1" d="M155.66,116.89c0.02-2.45,1.93-4.5,4.39-4.5c2.34,0,4.2,1.75,4.34,4.18c0,0.02,0,0.05,0,0.09
			s0,0.13-0.02,0.16c-0.05,0.43-0.43,0.72-0.94,0.72h-5.73c0.09,0.41,0.29,0.88,0.61,1.19c0.38,0.43,1.1,0.76,1.73,0.81
			c0.65,0.05,1.42-0.11,1.87-0.45c0.38-0.4,1.12-0.34,1.35-0.05c0.23,0.25,0.41,0.79,0,1.17c-0.88,0.81-1.94,1.19-3.22,1.19
			C157.59,121.37,155.68,119.34,155.66,116.89z M157.62,116.01h5.1c-0.18-0.72-1.1-1.78-2.67-1.91
			C158.52,114.17,157.77,115.27,157.62,116.01z"/>
		<path class="st1" d="M174.87,116.91v3.53c0,0.52-0.43,0.95-0.95,0.95c-0.47,0-0.83-0.34-0.94-0.77c-0.68,0.49-1.5,0.77-2.39,0.77
			c-1.22,0-2.29-0.5-3.06-1.31c-0.77-0.83-1.22-1.94-1.22-3.17c0-1.24,0.45-2.36,1.22-3.17c0.77-0.83,1.84-1.35,3.06-1.35
			c0.9,0,1.71,0.31,2.39,0.79c0.11-0.45,0.47-0.79,0.94-0.79c0.52,0,0.95,0.43,0.95,0.97V116.91z M172.96,116.91
			c0-0.76-0.27-1.4-0.7-1.85c-0.43-0.49-1.04-0.74-1.67-0.74c-0.65,0-1.26,0.25-1.67,0.74c-0.43,0.45-0.68,1.1-0.68,1.85
			c0,0.74,0.25,1.39,0.68,1.85c0.41,0.45,1.03,0.7,1.67,0.7c0.63,0,1.24-0.25,1.67-0.7C172.69,118.29,172.96,117.64,172.96,116.91z"
			/>
		<path class="st1" d="M183.94,113.34c0,0.5-0.41,0.96-0.95,0.96c-0.41,0-0.77,0.11-1.08,0.34c-0.34,0.22-0.61,0.52-0.83,0.86
			c-0.43,0.58-0.65,1.26-0.74,1.51v3.42c0,0.52-0.45,0.95-0.99,0.95c-0.52,0-0.95-0.43-0.95-0.95v-7.09c0-0.52,0.43-0.94,0.95-0.94
			c0.54,0,0.99,0.41,0.99,0.94v0.13c0.11-0.13,0.25-0.27,0.38-0.36c0.59-0.4,1.37-0.72,2.27-0.7
			C183.52,112.4,183.94,112.82,183.94,113.34z"/>
		<path class="st1" d="M193.8,116.13v4.3c0,0.52-0.41,0.95-0.94,0.95c-0.5,0-0.95-0.43-0.95-0.95v-4.3c0-1.01-0.85-1.82-1.87-1.82
			c-1.01,0-1.8,0.81-1.8,1.82v4.3c0,0.05,0,0.11-0.04,0.18c-0.09,0.43-0.49,0.77-0.95,0.77c-0.54,0-0.95-0.43-0.95-0.95v-4.3v-2.79
			c0-0.52,0.41-0.95,0.95-0.95c0.38,0,0.72,0.22,0.88,0.56c0.54-0.34,1.21-0.56,1.91-0.56C192.13,112.39,193.8,114.1,193.8,116.13z"
			/>
	</g>
	<g>
		<path class="st0" d="M61.12,137.98v-6.44c0-0.32,0.26-0.61,0.59-0.61s0.59,0.29,0.59,0.61v3.16l3.5-3.58
			c0.24-0.24,0.61-0.24,0.84,0c0.23,0.23,0.23,0.62,0,0.86l-2.38,2.41l2.4,3.2c0.22,0.25,0.17,0.64-0.09,0.85
			c-0.11,0.1-0.24,0.14-0.38,0.14c-0.16,0-0.32-0.08-0.44-0.22l-2.33-3.11l-1.12,1.17v1.56c0,0.33-0.26,0.61-0.59,0.61
			S61.12,138.31,61.12,137.98z"/>
		<path class="st0" d="M69.9,131.71c0,0.33-0.25,0.61-0.58,0.61c-0.32,0-0.58-0.28-0.58-0.61v-0.23c0-0.33,0.26-0.59,0.58-0.59
			c0.33,0,0.58,0.26,0.58,0.59V131.71z M69.9,133.7v4.29c0,0.33-0.25,0.59-0.58,0.59c-0.32,0-0.58-0.26-0.58-0.59v-4.29
			c0-0.35,0.26-0.61,0.58-0.61C69.65,133.1,69.9,133.35,69.9,133.7z"/>
		<path class="st0" d="M71.75,135.85c0-0.01,0-0.01,0-0.01v-4.36c0-0.32,0.26-0.59,0.58-0.59c0.33,0,0.59,0.28,0.59,0.59v2.07
			c0.4-0.29,0.92-0.46,1.45-0.46c1.46,0,2.63,1.25,2.63,2.76c0,1.49-1.17,2.74-2.63,2.74c-0.54,0-1.06-0.19-1.47-0.47
			c-0.05,0.26-0.28,0.47-0.57,0.47c-0.32,0-0.58-0.28-0.58-0.59V135.85z M72.93,135.85c0,0.42,0.16,0.81,0.43,1.09
			c0.27,0.29,0.62,0.45,1.02,0.45c0.39,0,0.75-0.17,1.02-0.45c0.27-0.27,0.43-0.67,0.43-1.09c0-0.44-0.16-0.84-0.43-1.11
			c-0.27-0.29-0.63-0.45-1.02-0.45c-0.4,0-0.75,0.17-1.02,0.45C73.09,135.01,72.93,135.41,72.93,135.85z"/>
		<path class="st0" d="M79.38,137.78c-0.46-0.48-0.75-1.17-0.75-1.94c0-0.75,0.28-1.4,0.75-1.93c0.49-0.52,1.11-0.84,1.86-0.84
			c0.71,0,1.36,0.32,1.8,0.84c0.49,0.53,0.76,1.18,0.76,1.93c0,0.77-0.27,1.45-0.76,1.94c-0.44,0.52-1.09,0.84-1.8,0.84
			C80.49,138.62,79.86,138.3,79.38,137.78z M79.81,135.85c0,0.47,0.14,0.86,0.39,1.17c0.27,0.26,0.63,0.41,1.04,0.41
			c0.38,0,0.72-0.14,0.99-0.41c0.27-0.31,0.42-0.69,0.42-1.17c0-0.45-0.15-0.85-0.42-1.14c-0.27-0.24-0.62-0.42-0.99-0.42
			c-0.41,0-0.77,0.18-1.04,0.42C79.95,135,79.81,135.4,79.81,135.85z"/>
		<path class="st0" d="M90.46,135.87v2.05c0,1.44-1.16,2.64-2.59,2.64c-0.4,0-0.8-0.1-1.13-0.28c-0.28-0.13-0.41-0.5-0.26-0.79
			c0.14-0.3,0.48-0.41,0.78-0.28c0.18,0.1,0.39,0.15,0.62,0.15c0.7,0,1.28-0.51,1.42-1.18c-0.39,0.28-0.89,0.44-1.42,0.44
			c-0.71,0-1.37-0.32-1.84-0.84c-0.46-0.48-0.76-1.17-0.76-1.94c0-0.76,0.29-1.44,0.76-1.96c0.46-0.5,1.12-0.81,1.84-0.81
			c0.56,0,1.06,0.18,1.45,0.46c0.05-0.26,0.29-0.46,0.57-0.46c0.32,0,0.57,0.26,0.57,0.58v2.19V135.87z M89.31,135.86
			c0-0.44-0.17-0.86-0.41-1.12c-0.28-0.31-0.62-0.47-1.03-0.47c-0.38,0-0.73,0.17-0.99,0.47c-0.26,0.26-0.43,0.68-0.43,1.12
			c0,0.46,0.17,0.88,0.43,1.13c0.26,0.3,0.62,0.45,0.99,0.45c0.41,0,0.75-0.15,1.03-0.45C89.13,136.74,89.31,136.32,89.31,135.86z"
			/>
		<path class="st0" d="M93.26,137.78c-0.46-0.48-0.75-1.17-0.75-1.94c0-0.75,0.28-1.4,0.75-1.93c0.49-0.52,1.11-0.84,1.86-0.84
			c0.71,0,1.36,0.32,1.8,0.84c0.49,0.53,0.76,1.18,0.76,1.93c0,0.77-0.27,1.45-0.76,1.94c-0.44,0.52-1.09,0.84-1.8,0.84
			C94.37,138.62,93.74,138.3,93.26,137.78z M93.69,135.85c0,0.47,0.14,0.86,0.39,1.17c0.27,0.26,0.63,0.41,1.04,0.41
			c0.38,0,0.72-0.14,0.99-0.41c0.27-0.31,0.42-0.69,0.42-1.17c0-0.45-0.15-0.85-0.42-1.14c-0.27-0.24-0.62-0.42-0.99-0.42
			c-0.41,0-0.77,0.18-1.04,0.42C93.83,135,93.69,135.4,93.69,135.85z"/>
		<path class="st0" d="M98.45,139.93c0-0.32,0.25-0.58,0.59-0.58v-5.65c0-0.34,0.27-0.61,0.58-0.61c0.33,0,0.58,0.26,0.58,0.61v5.65
			c0,0.65-0.52,1.19-1.17,1.19C98.7,140.53,98.45,140.28,98.45,139.93z M99.06,131.72v-0.22c0-0.35,0.27-0.61,0.59-0.61
			s0.58,0.25,0.58,0.61v0.22c0,0.32-0.26,0.61-0.58,0.61S99.06,132.04,99.06,131.72z"/>
		<path class="st0" d="M103.38,131.71c0,0.33-0.25,0.61-0.58,0.61c-0.32,0-0.58-0.28-0.58-0.61v-0.23c0-0.33,0.26-0.59,0.58-0.59
			c0.33,0,0.58,0.26,0.58,0.59V131.71z M103.38,133.7v4.29c0,0.33-0.25,0.59-0.58,0.59c-0.32,0-0.58-0.26-0.58-0.59v-4.29
			c0-0.35,0.26-0.61,0.58-0.61C103.13,133.1,103.38,133.35,103.38,133.7z"/>
		<path class="st0" d="M109.78,137.98c0,0.33-0.27,0.61-0.58,0.61c-0.33,0-0.59-0.28-0.59-0.61v-6.39c0,0,0,0,0-0.01
			c-0.01-0.19,0.08-0.38,0.24-0.51c0.27-0.19,0.64-0.13,0.82,0.13l3.49,4.92v-4.53c0-0.32,0.26-0.59,0.58-0.59s0.59,0.27,0.59,0.59
			v6.39c0,0.33-0.27,0.61-0.59,0.61c-0.17,0-0.33-0.09-0.44-0.22c-0.02-0.02-0.04-0.04-0.05-0.07l-3.46-4.88V137.98z"/>
		<path class="st0" d="M118.94,138.59c-1.23,0-2.25-1.03-2.25-2.29v-2.63c0-0.31,0.26-0.58,0.57-0.58c0.32,0,0.57,0.28,0.57,0.58
			v2.63c0,0.63,0.49,1.12,1.1,1.12c0.63,0,1.12-0.5,1.13-1.12v-2.63c0-0.31,0.24-0.58,0.56-0.58c0.3,0,0.58,0.28,0.58,0.58v2.63
			C121.22,137.55,120.18,138.59,118.94,138.59z"/>
		<path class="st0" d="M126.75,133.67c0,0.31-0.25,0.58-0.57,0.58c-0.25,0-0.46,0.07-0.65,0.21c-0.21,0.13-0.37,0.32-0.5,0.53
			c-0.26,0.35-0.39,0.77-0.44,0.92V138c0,0.32-0.27,0.58-0.59,0.58c-0.31,0-0.57-0.26-0.57-0.58v-4.33c0-0.32,0.26-0.57,0.57-0.57
			c0.32,0,0.59,0.25,0.59,0.57v0.08c0.07-0.08,0.15-0.17,0.23-0.22c0.36-0.24,0.82-0.44,1.36-0.43
			C126.5,133.1,126.75,133.35,126.75,133.67z"/>
		<path class="st0" d="M127.9,137.01c0.19-0.26,0.57-0.3,0.81-0.09c0.28,0.24,0.77,0.5,1.19,0.48c0.29,0,0.56-0.1,0.73-0.21
			c0.15-0.13,0.19-0.24,0.19-0.33c0-0.06-0.01-0.08-0.03-0.11c-0.01-0.03-0.05-0.08-0.14-0.13c-0.15-0.11-0.47-0.23-0.86-0.31h-0.01
			c-0.33-0.07-0.66-0.15-0.94-0.29c-0.29-0.14-0.55-0.34-0.75-0.64c-0.12-0.2-0.18-0.44-0.18-0.69c0-0.51,0.28-0.93,0.64-1.21
			c0.38-0.26,0.83-0.41,1.33-0.41c0.75,0,1.27,0.36,1.62,0.61c0.26,0.18,0.33,0.54,0.17,0.81c-0.17,0.26-0.53,0.34-0.8,0.15
			c-0.35-0.23-0.65-0.41-0.99-0.41c-0.27,0-0.51,0.09-0.65,0.2c-0.14,0.1-0.17,0.2-0.17,0.25c0,0.04,0,0.06,0.02,0.09
			c0.01,0.02,0.04,0.07,0.12,0.11c0.14,0.1,0.42,0.2,0.79,0.26l0.01,0.01h0.01c0.36,0.07,0.69,0.17,1,0.32
			c0.29,0.13,0.58,0.34,0.77,0.65c0.13,0.22,0.21,0.47,0.21,0.73c0,0.54-0.29,0.99-0.68,1.28c-0.39,0.28-0.88,0.44-1.4,0.44
			c-0.84-0.01-1.49-0.41-1.92-0.76C127.74,137.63,127.71,137.26,127.9,137.01z"/>
		<path class="st0" d="M133.1,135.84c0.01-1.5,1.16-2.75,2.64-2.75c1.4,0,2.52,1.07,2.6,2.55c0,0.01,0,0.03,0,0.05
			c0,0.02,0,0.08-0.01,0.1c-0.03,0.26-0.26,0.44-0.56,0.44h-3.44c0.05,0.25,0.17,0.54,0.37,0.73c0.23,0.26,0.66,0.46,1.04,0.5
			c0.39,0.03,0.85-0.07,1.12-0.28c0.23-0.24,0.67-0.21,0.81-0.03c0.14,0.15,0.25,0.48,0,0.71c-0.53,0.5-1.17,0.73-1.93,0.73
			C134.25,138.58,133.11,137.33,133.1,135.84z M134.27,135.3h3.06c-0.11-0.44-0.66-1.09-1.6-1.17
			C134.81,134.17,134.36,134.85,134.27,135.3z"/>
		<path class="st0" d="M143.15,133.67c0,0.31-0.25,0.58-0.57,0.58c-0.25,0-0.46,0.07-0.65,0.21c-0.21,0.13-0.37,0.32-0.5,0.53
			c-0.26,0.35-0.39,0.77-0.44,0.92V138c0,0.32-0.27,0.58-0.59,0.58c-0.31,0-0.57-0.26-0.57-0.58v-4.33c0-0.32,0.26-0.57,0.57-0.57
			c0.32,0,0.59,0.25,0.59,0.57v0.08c0.06-0.08,0.15-0.17,0.23-0.22c0.36-0.24,0.82-0.44,1.36-0.43
			C142.9,133.1,143.15,133.35,143.15,133.67z"/>
		<path class="st0" d="M148.64,133.67v2.6v1.56c0,1.47-1.14,2.63-2.58,2.63c-0.39,0-0.79-0.11-1.11-0.27
			c-0.3-0.13-0.41-0.47-0.28-0.78c0.14-0.26,0.51-0.39,0.77-0.24c0.21,0.1,0.41,0.15,0.63,0.15c0.64-0.01,1.18-0.43,1.35-1
			c-0.3,0.18-0.67,0.26-1.03,0.26c-1.24,0-2.26-1.05-2.26-2.31v-2.6c0-0.33,0.27-0.58,0.56-0.58c0.33,0,0.57,0.25,0.57,0.58v2.6
			c0,0.64,0.51,1.12,1.12,1.12c0.62,0,1.11-0.48,1.11-1.12v-2.6c0-0.33,0.24-0.58,0.56-0.58
			C148.37,133.09,148.64,133.34,148.64,133.67z"/>
		<path class="st0" d="M154.04,136.67c0.19-0.24,0.55-0.28,0.79-0.08c0.47,0.4,1.3,0.86,2.06,0.85c0.54,0,1.03-0.17,1.35-0.41
			c0.32-0.24,0.46-0.52,0.46-0.79c0-0.14-0.03-0.24-0.1-0.35c-0.07-0.11-0.16-0.22-0.32-0.33c-0.31-0.21-0.84-0.4-1.48-0.52h-0.02
			c-0.51-0.1-0.98-0.23-1.39-0.43s-0.77-0.47-1-0.86c-0.16-0.26-0.25-0.57-0.25-0.9c0-0.66,0.37-1.23,0.86-1.61
			c0.51-0.37,1.17-0.58,1.87-0.58c1.04,0,1.8,0.52,2.35,0.88c0.25,0.18,0.32,0.53,0.15,0.78c-0.16,0.26-0.51,0.34-0.77,0.17
			c-0.55-0.37-1.08-0.7-1.74-0.7c-0.49,0-0.92,0.15-1.21,0.37c-0.29,0.22-0.41,0.46-0.41,0.69c0,0.13,0.02,0.22,0.08,0.31
			c0.05,0.09,0.15,0.19,0.29,0.29c0.28,0.2,0.77,0.37,1.35,0.48h0.02c0.55,0.11,1.06,0.25,1.49,0.46c0.44,0.22,0.83,0.51,1.08,0.91
			c0.16,0.26,0.26,0.59,0.26,0.93c0,0.7-0.39,1.31-0.93,1.71c-0.53,0.4-1.23,0.63-2,0.63c-1.17-0.01-2.15-0.61-2.77-1.1
			C153.89,137.28,153.85,136.91,154.04,136.67z"/>
		<path class="st0" d="M160.98,135.85c0-1.53,1.25-2.75,2.74-2.76c0.65,0,1.25,0.24,1.72,0.61c0.25,0.2,0.29,0.57,0.12,0.81
			c-0.22,0.26-0.56,0.31-0.81,0.11c-0.28-0.21-0.63-0.35-1.03-0.35c-0.88,0-1.6,0.74-1.6,1.58c0,0.85,0.72,1.57,1.6,1.57
			c0.39,0,0.75-0.14,1.03-0.35c0.24-0.19,0.59-0.14,0.81,0.12c0.17,0.24,0.13,0.59-0.12,0.81c-0.46,0.34-1.07,0.58-1.72,0.58
			C162.24,138.59,160.98,137.35,160.98,135.85z"/>
		<path class="st0" d="M168.73,137.98c0,0.34-0.27,0.61-0.61,0.61c-0.27,0-0.5-0.2-0.57-0.45c-0.01-0.04-0.02-0.1-0.02-0.15v-6.49
			c0-0.34,0.27-0.61,0.59-0.61c0.33,0,0.61,0.26,0.61,0.61v1.91c0.35-0.19,0.73-0.32,1.16-0.32c1.31,0,2.36,1.09,2.36,2.41v2.49
			c0,0.34-0.26,0.61-0.59,0.61s-0.59-0.26-0.59-0.61v-2.49c0-0.65-0.52-1.18-1.17-1.19c-0.64,0.01-1.14,0.54-1.16,1.19V137.98z"/>
		<path class="st0" d="M174.64,137.78c-0.46-0.48-0.75-1.17-0.75-1.94c0-0.75,0.28-1.4,0.75-1.93c0.49-0.52,1.11-0.84,1.86-0.84
			c0.71,0,1.36,0.32,1.8,0.84c0.49,0.53,0.76,1.18,0.76,1.93c0,0.77-0.27,1.45-0.76,1.94c-0.44,0.52-1.09,0.84-1.8,0.84
			C175.76,138.62,175.13,138.3,174.64,137.78z M175.08,135.85c0,0.47,0.14,0.86,0.39,1.17c0.27,0.26,0.63,0.41,1.04,0.41
			c0.38,0,0.72-0.14,0.99-0.41c0.27-0.31,0.42-0.69,0.42-1.17c0-0.45-0.15-0.85-0.42-1.14c-0.27-0.24-0.62-0.42-0.99-0.42
			c-0.41,0-0.77,0.18-1.04,0.42C175.22,135,175.08,135.4,175.08,135.85z"/>
		<path class="st0" d="M181.39,137.78c-0.46-0.48-0.75-1.17-0.75-1.94c0-0.75,0.28-1.4,0.75-1.93c0.49-0.52,1.11-0.84,1.86-0.84
			c0.71,0,1.36,0.32,1.8,0.84c0.49,0.53,0.76,1.18,0.76,1.93c0,0.77-0.27,1.45-0.76,1.94c-0.44,0.52-1.09,0.84-1.8,0.84
			C182.51,138.62,181.88,138.3,181.39,137.78z M181.83,135.85c0,0.47,0.14,0.86,0.39,1.17c0.27,0.26,0.63,0.41,1.04,0.41
			c0.38,0,0.72-0.14,0.99-0.41c0.27-0.31,0.42-0.69,0.42-1.17c0-0.45-0.15-0.85-0.42-1.14c-0.27-0.24-0.62-0.42-0.99-0.42
			c-0.41,0-0.77,0.18-1.04,0.42C181.97,135,181.83,135.4,181.83,135.85z"/>
		<path class="st0" d="M188.32,130.89c0.33,0,0.6,0.28,0.6,0.61v6.49c0,0.33-0.27,0.61-0.6,0.61c-0.32,0-0.59-0.28-0.59-0.61v-6.49
			C187.72,131.16,187.99,130.89,188.32,130.89z"/>
	</g>
</g>
</svg>
