<?xml version="1.0" encoding="utf-8"?>
<!-- Generator: Adobe Illustrator 23.0.1, SVG Export Plug-In . SVG Version: 6.00 Build 0)  -->
<svg version="1.1" xmlns="http://www.w3.org/2000/svg" xmlns:xlink="http://www.w3.org/1999/xlink" x="0px" y="0px"
	 viewBox="0 0 84.99 79.85" style="enable-background:new 0 0 84.99 79.85;" xml:space="preserve">
<style type="text/css">
	.st0{fill:#8A5D3B;}
	.st1{fill:#BAC639;}
</style>
<g id="Steam">
</g>
<g id="Motto">
</g>
<g id="Circles">
</g>
<g id="branch">
	<g>
		<path class="st0" d="M43.54,20.34c-0.7-4.04-1.08-4.64-0.95-4.72c0.54-0.32,3.92,26.79,5.74,38.08
			c0.45,2.76-10.64,4.49-11.21-0.16l5.47-37.93"/>
		<circle class="st1" cx="29.52" cy="42.63" r="4.34"/>
		<circle class="st1" cx="25.18" cy="31.22" r="4.34"/>
		<circle class="st1" cx="29.52" cy="18.38" r="4.34"/>
		<circle class="st1" cx="52.63" cy="18.38" r="4.34"/>
		<circle class="st1" cx="42.53" cy="12.89" r="2.05"/>
		<circle class="st1" cx="35.91" cy="25.71" r="2.05"/>
		<circle class="st1" cx="49.65" cy="26.88" r="2.05"/>
		<circle class="st1" cx="49.65" cy="10.73" r="1.57"/>
		<circle class="st1" cx="33.13" cy="11.32" r="1.57"/>
		<circle class="st1" cx="42.37" cy="5.85" r="4.34"/>
		<circle class="st1" cx="60.01" cy="31.22" r="4.34"/>
		<circle class="st1" cx="55.67" cy="42.63" r="4.34"/>
		<polygon class="st0" points="42.42,33.3 44.47,38.61 53.74,32.09 		"/>
		<polygon class="st0" points="40.92,38.07 42.7,33.38 31.56,31.74 		"/>
	</g>
	<g>
		<path class="st1" d="M1.89,65.76V59.5c0-0.33,0.25-0.58,0.58-0.58c0.33,0,0.59,0.25,0.59,0.58v2.54h2.75V59.5
			c0-0.33,0.25-0.58,0.58-0.58c0.33,0,0.59,0.25,0.59,0.58v6.26c0,0.33-0.27,0.58-0.59,0.58c-0.33,0-0.58-0.25-0.58-0.58v-2.54H3.07
			v2.54c0,0.33-0.27,0.58-0.59,0.58C2.15,66.34,1.89,66.09,1.89,65.76z"/>
		<path class="st1" d="M9.78,65.57c-0.46-0.47-0.73-1.12-0.73-1.87c0-0.72,0.28-1.35,0.73-1.86c0.48-0.5,1.09-0.81,1.82-0.81
			c0.7,0,1.34,0.31,1.77,0.81c0.48,0.51,0.74,1.13,0.74,1.86c0,0.74-0.27,1.4-0.74,1.87c-0.43,0.5-1.07,0.81-1.77,0.81
			C10.87,66.37,10.26,66.06,9.78,65.57z M10.2,63.7c0,0.46,0.14,0.83,0.38,1.12c0.27,0.25,0.61,0.39,1.02,0.39
			c0.37,0,0.71-0.14,0.98-0.39c0.27-0.3,0.41-0.67,0.41-1.12c0-0.43-0.15-0.82-0.41-1.1c-0.27-0.23-0.6-0.4-0.98-0.4
			c-0.4,0-0.75,0.17-1.02,0.4C10.34,62.88,10.2,63.26,10.2,63.7z"/>
		<path class="st1" d="M15.92,67.76v-4.05c0,0,0,0,0-0.01v-2.1c0-0.31,0.25-0.56,0.56-0.56c0.3,0,0.54,0.2,0.58,0.43
			c0.39-0.25,0.9-0.43,1.44-0.43c1.41,0,2.57,1.21,2.57,2.66c0,1.45-1.16,2.63-2.57,2.63c-0.53,0-1.04-0.16-1.42-0.43v1.87
			c0,0.3-0.27,0.57-0.6,0.57C16.17,68.33,15.92,68.06,15.92,67.76z M17.08,63.7c0,0.41,0.14,0.82,0.41,1.06
			c0.27,0.3,0.61,0.45,1.01,0.45c0.36,0,0.72-0.15,1-0.45c0.24-0.24,0.41-0.65,0.41-1.06s-0.17-0.8-0.41-1.07
			c-0.28-0.29-0.64-0.43-1-0.43c-0.39,0-0.74,0.15-1.01,0.43C17.22,62.9,17.08,63.29,17.08,63.7z"/>
		<path class="st1" d="M22.43,63.69c0.01-1.44,1.13-2.65,2.59-2.65c1.38,0,2.47,1.03,2.56,2.46c0,0.01,0,0.03,0,0.05
			c0,0.02,0,0.07-0.01,0.1c-0.03,0.25-0.25,0.42-0.55,0.42h-3.37c0.05,0.24,0.17,0.52,0.36,0.7c0.22,0.25,0.65,0.45,1.02,0.48
			c0.38,0.03,0.84-0.06,1.1-0.27c0.22-0.23,0.66-0.2,0.8-0.03c0.14,0.15,0.24,0.47,0,0.69c-0.52,0.48-1.15,0.7-1.9,0.7
			C23.57,66.33,22.44,65.13,22.43,63.69z M23.59,63.17h3c-0.11-0.42-0.65-1.05-1.57-1.12C24.12,62.09,23.67,62.73,23.59,63.17z"/>
		<path class="st1" d="M36.92,63.7v2.08c0,0.31-0.25,0.56-0.56,0.56c-0.28,0-0.49-0.2-0.55-0.46c-0.4,0.29-0.88,0.46-1.41,0.46
			c-0.72,0-1.35-0.3-1.8-0.77c-0.46-0.49-0.72-1.14-0.72-1.87c0-0.73,0.27-1.39,0.72-1.87c0.46-0.49,1.08-0.8,1.8-0.8
			c0.53,0,1.01,0.18,1.41,0.47c0.06-0.26,0.28-0.47,0.55-0.47c0.31,0,0.56,0.25,0.56,0.57V63.7z M35.8,63.7
			c0-0.45-0.16-0.83-0.41-1.09c-0.25-0.29-0.61-0.43-0.99-0.43c-0.38,0-0.74,0.15-0.99,0.43c-0.25,0.27-0.4,0.65-0.4,1.09
			c0,0.43,0.15,0.82,0.4,1.09c0.24,0.27,0.6,0.41,0.99,0.41c0.37,0,0.73-0.15,0.99-0.41C35.64,64.52,35.8,64.13,35.8,63.7z"/>
		<path class="st1" d="M43.32,63.24v2.53c0,0.31-0.24,0.56-0.55,0.56c-0.3,0-0.56-0.25-0.56-0.56v-2.53c0-0.59-0.5-1.07-1.1-1.07
			c-0.59,0-1.06,0.48-1.06,1.07v2.53c0,0.03,0,0.06-0.02,0.11c-0.05,0.25-0.29,0.46-0.56,0.46c-0.32,0-0.56-0.25-0.56-0.56v-2.53
			V61.6c0-0.31,0.24-0.56,0.56-0.56c0.22,0,0.42,0.13,0.52,0.33c0.32-0.2,0.71-0.33,1.12-0.33C42.33,61.04,43.32,62.05,43.32,63.24z
			"/>
		<path class="st1" d="M49.98,65.77c0,0.31-0.25,0.57-0.57,0.57c-0.29,0-0.51-0.2-0.56-0.46c-0.4,0.28-0.91,0.46-1.44,0.46
			c-1.43,0-2.58-1.21-2.58-2.64c0-1.45,1.14-2.66,2.58-2.66c0.52,0,1.03,0.17,1.42,0.45v-1.99c0-0.31,0.25-0.57,0.58-0.57
			c0.32,0,0.57,0.27,0.57,0.57v4.2c0,0,0,0,0,0.01V65.77z M47.41,62.19c-0.38,0-0.73,0.16-1,0.43c-0.26,0.27-0.42,0.65-0.42,1.07
			c0,0.4,0.16,0.78,0.42,1.05c0.27,0.28,0.62,0.43,1,0.43c0.39,0,0.73-0.16,1-0.43c0.27-0.27,0.42-0.65,0.42-1.05
			c0-0.42-0.16-0.81-0.42-1.07C48.14,62.35,47.8,62.19,47.41,62.19z"/>
		<path class="st1" d="M55.47,65.76V59.5c0-0.32,0.25-0.58,0.58-0.58c0.33,0,0.59,0.27,0.59,0.58v5.66h2.87
			c0.31,0,0.58,0.27,0.58,0.59c0,0.32-0.28,0.58-0.58,0.58h-3.44c-0.02,0-0.02,0-0.02,0c-0.01,0-0.01,0-0.01,0
			C55.73,66.34,55.47,66.07,55.47,65.76z"/>
		<path class="st1" d="M60.84,63.69c0.01-1.44,1.13-2.65,2.59-2.65c1.38,0,2.47,1.03,2.56,2.46c0,0.01,0,0.03,0,0.05
			c0,0.02,0,0.07-0.01,0.1c-0.03,0.25-0.25,0.42-0.55,0.42h-3.37c0.05,0.24,0.17,0.52,0.36,0.7c0.22,0.25,0.65,0.45,1.02,0.48
			c0.38,0.03,0.84-0.06,1.1-0.27c0.22-0.23,0.66-0.2,0.79-0.03c0.14,0.15,0.24,0.47,0,0.69c-0.52,0.48-1.14,0.7-1.9,0.7
			C61.98,66.33,60.86,65.13,60.84,63.69z M62,63.17h3c-0.11-0.42-0.65-1.05-1.57-1.12C62.53,62.09,62.09,62.73,62,63.17z"/>
		<path class="st1" d="M72.16,63.7v2.08c0,0.31-0.25,0.56-0.56,0.56c-0.28,0-0.49-0.2-0.55-0.46c-0.4,0.29-0.88,0.46-1.41,0.46
			c-0.72,0-1.35-0.3-1.8-0.77c-0.46-0.49-0.72-1.14-0.72-1.87c0-0.73,0.27-1.39,0.72-1.87c0.46-0.49,1.08-0.8,1.8-0.8
			c0.53,0,1.01,0.18,1.41,0.47c0.06-0.26,0.28-0.47,0.55-0.47c0.31,0,0.56,0.25,0.56,0.57V63.7z M71.03,63.7
			c0-0.45-0.16-0.83-0.41-1.09c-0.25-0.29-0.61-0.43-0.99-0.43c-0.38,0-0.74,0.15-0.99,0.43c-0.25,0.27-0.4,0.65-0.4,1.09
			c0,0.43,0.15,0.82,0.4,1.09c0.24,0.27,0.6,0.41,0.99,0.41c0.37,0,0.73-0.15,0.99-0.41C70.87,64.52,71.03,64.13,71.03,63.7z"/>
		<path class="st1" d="M77.5,61.6c0,0.3-0.24,0.56-0.56,0.56c-0.24,0-0.46,0.06-0.64,0.2c-0.2,0.13-0.36,0.31-0.49,0.51
			c-0.25,0.34-0.38,0.74-0.43,0.89v2.01c0,0.31-0.27,0.56-0.58,0.56c-0.31,0-0.56-0.25-0.56-0.56V61.6c0-0.31,0.25-0.55,0.56-0.55
			c0.32,0,0.58,0.24,0.58,0.55v0.07c0.06-0.07,0.15-0.16,0.22-0.21c0.35-0.23,0.81-0.42,1.34-0.41C77.25,61.05,77.5,61.29,77.5,61.6
			z"/>
		<path class="st1" d="M83.31,63.24v2.53c0,0.31-0.24,0.56-0.55,0.56c-0.3,0-0.56-0.25-0.56-0.56v-2.53c0-0.59-0.5-1.07-1.1-1.07
			c-0.59,0-1.06,0.48-1.06,1.07v2.53c0,0.03,0,0.06-0.02,0.11c-0.05,0.25-0.29,0.46-0.56,0.46c-0.32,0-0.56-0.25-0.56-0.56v-2.53
			V61.6c0-0.31,0.24-0.56,0.56-0.56c0.22,0,0.42,0.13,0.52,0.33c0.32-0.2,0.71-0.33,1.12-0.33C82.32,61.04,83.31,62.05,83.31,63.24z
			"/>
	</g>
	<g>
		<path class="st0" d="M5.17,76.11v-3.79c0-0.19,0.15-0.36,0.35-0.36c0.2,0,0.35,0.17,0.35,0.36v1.86l2.06-2.11
			c0.14-0.14,0.36-0.14,0.5,0c0.13,0.14,0.13,0.36,0,0.51L7.03,74l1.41,1.89c0.13,0.15,0.1,0.38-0.05,0.5
			c-0.06,0.06-0.14,0.08-0.22,0.08c-0.1,0-0.19-0.05-0.26-0.13L6.53,74.5l-0.66,0.69v0.92c0,0.19-0.15,0.36-0.35,0.36
			C5.33,76.47,5.17,76.3,5.17,76.11z"/>
		<path class="st0" d="M10.34,72.42c0,0.19-0.15,0.36-0.34,0.36c-0.19,0-0.34-0.16-0.34-0.36v-0.14c0-0.19,0.15-0.35,0.34-0.35
			c0.2,0,0.34,0.16,0.34,0.35V72.42z M10.34,73.59v2.53c0,0.19-0.15,0.35-0.34,0.35c-0.19,0-0.34-0.16-0.34-0.35v-2.53
			c0-0.21,0.15-0.36,0.34-0.36C10.2,73.23,10.34,73.38,10.34,73.59z"/>
		<path class="st0" d="M11.44,74.85C11.44,74.85,11.44,74.85,11.44,74.85v-2.57c0-0.19,0.15-0.35,0.34-0.35
			c0.2,0,0.35,0.16,0.35,0.35v1.22c0.24-0.17,0.54-0.27,0.85-0.27c0.86,0,1.55,0.74,1.55,1.63c0,0.87-0.69,1.61-1.55,1.61
			c-0.32,0-0.62-0.11-0.87-0.28c-0.03,0.16-0.17,0.28-0.34,0.28c-0.19,0-0.34-0.16-0.34-0.35V74.85z M12.13,74.85
			c0,0.25,0.1,0.48,0.25,0.64c0.16,0.17,0.36,0.27,0.6,0.27c0.23,0,0.44-0.1,0.6-0.27c0.16-0.16,0.25-0.4,0.25-0.64
			c0-0.26-0.1-0.49-0.25-0.65c-0.16-0.17-0.37-0.27-0.6-0.27c-0.24,0-0.44,0.1-0.6,0.27C12.23,74.36,12.13,74.59,12.13,74.85z"/>
		<path class="st0" d="M15.93,75.99c-0.27-0.29-0.44-0.69-0.44-1.14c0-0.44,0.17-0.82,0.44-1.13c0.29-0.3,0.66-0.49,1.09-0.49
			c0.42,0,0.8,0.19,1.06,0.49c0.29,0.31,0.45,0.69,0.45,1.13c0,0.45-0.16,0.86-0.45,1.14c-0.26,0.3-0.64,0.49-1.06,0.49
			C16.58,76.49,16.21,76.3,15.93,75.99z M16.18,74.85c0,0.28,0.08,0.51,0.23,0.69c0.16,0.16,0.37,0.24,0.61,0.24
			c0.22,0,0.43-0.08,0.59-0.24c0.16-0.18,0.25-0.41,0.25-0.69c0-0.27-0.09-0.5-0.25-0.67c-0.16-0.14-0.36-0.25-0.59-0.25
			c-0.24,0-0.45,0.1-0.61,0.25C16.26,74.35,16.18,74.59,16.18,74.85z"/>
		<path class="st0" d="M22.45,74.87v1.21c0,0.85-0.68,1.55-1.53,1.55c-0.24,0-0.47-0.06-0.67-0.16c-0.17-0.08-0.24-0.29-0.15-0.47
			c0.08-0.17,0.28-0.24,0.46-0.16c0.11,0.06,0.23,0.09,0.36,0.09c0.41,0,0.75-0.3,0.83-0.69c-0.23,0.16-0.52,0.26-0.83,0.26
			c-0.42,0-0.81-0.19-1.08-0.49c-0.27-0.29-0.45-0.69-0.45-1.14c0-0.45,0.17-0.85,0.45-1.15c0.27-0.29,0.66-0.48,1.08-0.48
			c0.33,0,0.62,0.1,0.85,0.27c0.03-0.16,0.17-0.27,0.34-0.27c0.19,0,0.34,0.16,0.34,0.34V74.87L22.45,74.87z M21.77,74.86
			c0-0.26-0.1-0.51-0.24-0.66c-0.17-0.18-0.36-0.28-0.6-0.28c-0.22,0-0.43,0.1-0.58,0.28c-0.15,0.16-0.25,0.4-0.25,0.66
			c0,0.27,0.1,0.52,0.25,0.67c0.15,0.18,0.36,0.27,0.58,0.27c0.24,0,0.44-0.09,0.6-0.27C21.67,75.38,21.77,75.13,21.77,74.86z"/>
		<path class="st0" d="M24.1,75.99c-0.27-0.29-0.44-0.69-0.44-1.14c0-0.44,0.17-0.82,0.44-1.13c0.29-0.3,0.66-0.49,1.09-0.49
			c0.42,0,0.8,0.19,1.06,0.49c0.29,0.31,0.45,0.69,0.45,1.13c0,0.45-0.16,0.86-0.45,1.14c-0.26,0.3-0.64,0.49-1.06,0.49
			C24.75,76.49,24.39,76.3,24.1,75.99z M24.35,74.85c0,0.28,0.08,0.51,0.23,0.69c0.16,0.16,0.37,0.24,0.61,0.24
			c0.22,0,0.43-0.08,0.59-0.24c0.16-0.18,0.25-0.41,0.25-0.69c0-0.27-0.09-0.5-0.25-0.67c-0.16-0.14-0.36-0.25-0.59-0.25
			c-0.24,0-0.45,0.1-0.61,0.25C24.44,74.35,24.35,74.59,24.35,74.85z"/>
		<path class="st0" d="M27.16,77.26c0-0.19,0.15-0.34,0.35-0.34v-3.33c0-0.2,0.16-0.36,0.34-0.36c0.2,0,0.34,0.16,0.34,0.36v3.33
			c0,0.38-0.31,0.7-0.69,0.7C27.3,77.61,27.16,77.46,27.16,77.26z M27.51,72.42v-0.13c0-0.21,0.16-0.36,0.35-0.36
			s0.34,0.15,0.34,0.36v0.13c0,0.19-0.15,0.36-0.34,0.36S27.51,72.61,27.51,72.42z"/>
		<path class="st0" d="M30.06,72.42c0,0.19-0.15,0.36-0.34,0.36c-0.19,0-0.34-0.16-0.34-0.36v-0.14c0-0.19,0.15-0.35,0.34-0.35
			c0.2,0,0.34,0.16,0.34,0.35V72.42z M30.06,73.59v2.53c0,0.19-0.15,0.35-0.34,0.35c-0.19,0-0.34-0.16-0.34-0.35v-2.53
			c0-0.21,0.15-0.36,0.34-0.36C29.91,73.23,30.06,73.38,30.06,73.59z"/>
		<path class="st0" d="M33.83,76.11c0,0.19-0.16,0.36-0.34,0.36c-0.2,0-0.35-0.16-0.35-0.36v-3.76c0,0,0,0,0-0.01
			c-0.01-0.11,0.04-0.23,0.14-0.3c0.16-0.11,0.37-0.08,0.48,0.08l2.06,2.9v-2.67c0-0.19,0.15-0.35,0.34-0.35
			c0.19,0,0.35,0.16,0.35,0.35v3.76c0,0.19-0.16,0.36-0.35,0.36c-0.1,0-0.2-0.05-0.26-0.13c-0.01-0.01-0.03-0.03-0.03-0.04
			l-2.04-2.88V76.11z"/>
		<path class="st0" d="M39.22,76.47c-0.73,0-1.32-0.61-1.32-1.35v-1.55c0-0.18,0.15-0.34,0.34-0.34c0.19,0,0.34,0.16,0.34,0.34v1.55
			c0,0.37,0.29,0.66,0.65,0.66c0.37,0,0.66-0.29,0.67-0.66v-1.55c0-0.18,0.14-0.34,0.33-0.34c0.18,0,0.34,0.16,0.34,0.34v1.55
			C40.57,75.86,39.95,76.47,39.22,76.47z"/>
		<path class="st0" d="M43.82,73.57c0,0.18-0.15,0.34-0.34,0.34c-0.15,0-0.27,0.04-0.38,0.12c-0.12,0.08-0.22,0.19-0.29,0.31
			c-0.15,0.21-0.23,0.45-0.26,0.54v1.23c0,0.19-0.16,0.34-0.35,0.34c-0.18,0-0.34-0.16-0.34-0.34v-2.55c0-0.19,0.15-0.34,0.34-0.34
			c0.19,0,0.35,0.15,0.35,0.34v0.05c0.04-0.05,0.09-0.1,0.13-0.13c0.21-0.14,0.48-0.26,0.8-0.25
			C43.67,73.23,43.82,73.38,43.82,73.57z"/>
		<path class="st0" d="M44.5,75.54c0.11-0.16,0.34-0.17,0.48-0.05c0.17,0.14,0.45,0.29,0.7,0.29c0.17,0,0.33-0.06,0.43-0.12
			c0.09-0.08,0.11-0.14,0.11-0.19c0-0.03-0.01-0.05-0.02-0.06c-0.01-0.02-0.03-0.05-0.08-0.08c-0.09-0.06-0.28-0.14-0.51-0.18h-0.01
			c-0.2-0.04-0.39-0.09-0.55-0.17c-0.17-0.08-0.32-0.2-0.44-0.38c-0.07-0.12-0.11-0.26-0.11-0.41c0-0.3,0.17-0.55,0.37-0.71
			c0.22-0.16,0.49-0.24,0.78-0.24c0.44,0,0.75,0.21,0.95,0.36c0.15,0.1,0.2,0.32,0.1,0.48c-0.1,0.16-0.31,0.2-0.47,0.09
			c-0.2-0.14-0.38-0.24-0.59-0.24c-0.16,0-0.3,0.05-0.38,0.12c-0.08,0.06-0.1,0.12-0.1,0.15c0,0.03,0,0.03,0.01,0.05
			c0.01,0.01,0.03,0.04,0.07,0.06c0.08,0.06,0.25,0.12,0.46,0.16l0.01,0.01h0.01c0.21,0.04,0.41,0.1,0.59,0.19
			c0.17,0.08,0.34,0.2,0.45,0.38c0.08,0.13,0.12,0.28,0.12,0.43c0,0.32-0.17,0.58-0.4,0.75c-0.23,0.16-0.52,0.26-0.83,0.26
			c-0.5-0.01-0.88-0.24-1.13-0.45C44.41,75.9,44.39,75.68,44.5,75.54z"/>
		<path class="st0" d="M47.56,74.85c0.01-0.88,0.68-1.62,1.55-1.62c0.83,0,1.48,0.63,1.53,1.5c0,0.01,0,0.02,0,0.03
			c0,0.01,0,0.05-0.01,0.06c-0.02,0.16-0.15,0.26-0.33,0.26h-2.02c0.03,0.15,0.1,0.32,0.22,0.43c0.13,0.16,0.39,0.27,0.61,0.29
			c0.23,0.02,0.5-0.04,0.66-0.16c0.13-0.14,0.39-0.12,0.48-0.02c0.08,0.09,0.15,0.29,0,0.42c-0.31,0.29-0.69,0.43-1.14,0.43
			C48.24,76.46,47.57,75.73,47.56,74.85z M48.25,74.53h1.8c-0.06-0.26-0.39-0.64-0.94-0.69C48.57,73.87,48.3,74.26,48.25,74.53z"/>
		<path class="st0" d="M53.48,73.57c0,0.18-0.15,0.34-0.34,0.34c-0.15,0-0.27,0.04-0.38,0.12c-0.12,0.08-0.22,0.19-0.29,0.31
			c-0.15,0.21-0.23,0.45-0.26,0.54v1.23c0,0.19-0.16,0.34-0.35,0.34c-0.18,0-0.34-0.16-0.34-0.34v-2.55c0-0.19,0.15-0.34,0.34-0.34
			c0.19,0,0.35,0.15,0.35,0.34v0.05c0.04-0.05,0.09-0.1,0.13-0.13c0.21-0.14,0.48-0.26,0.8-0.25
			C53.33,73.23,53.48,73.38,53.48,73.57z"/>
		<path class="st0" d="M56.71,73.57v1.53v0.92c0,0.87-0.67,1.55-1.52,1.55c-0.23,0-0.46-0.06-0.65-0.16
			c-0.18-0.08-0.24-0.28-0.17-0.46c0.08-0.16,0.3-0.23,0.45-0.14c0.12,0.06,0.24,0.09,0.37,0.09c0.38-0.01,0.69-0.25,0.8-0.59
			c-0.18,0.1-0.39,0.16-0.6,0.16c-0.73,0-1.33-0.62-1.33-1.36v-1.53c0-0.19,0.16-0.34,0.33-0.34c0.2,0,0.34,0.15,0.34,0.34v1.53
			c0,0.38,0.3,0.66,0.66,0.66c0.36,0,0.66-0.29,0.66-0.66v-1.53c0-0.19,0.14-0.34,0.33-0.34C56.55,73.23,56.71,73.38,56.71,73.57z"
			/>
		<path class="st0" d="M59.89,75.34c0.11-0.14,0.32-0.16,0.46-0.05c0.28,0.23,0.76,0.51,1.22,0.5c0.32,0,0.6-0.1,0.79-0.24
			c0.19-0.14,0.27-0.3,0.27-0.47c0-0.08-0.02-0.14-0.06-0.21c-0.04-0.06-0.1-0.13-0.19-0.19c-0.18-0.12-0.5-0.23-0.87-0.3h-0.01
			c-0.3-0.06-0.58-0.14-0.82-0.25c-0.24-0.12-0.45-0.28-0.59-0.51c-0.1-0.16-0.15-0.34-0.15-0.53c0-0.39,0.22-0.73,0.51-0.95
			c0.3-0.22,0.69-0.34,1.1-0.34c0.61,0,1.06,0.3,1.39,0.52c0.15,0.1,0.19,0.31,0.09,0.46c-0.1,0.16-0.3,0.2-0.45,0.1
			c-0.32-0.22-0.64-0.41-1.02-0.41c-0.29,0-0.54,0.09-0.71,0.22c-0.17,0.13-0.24,0.27-0.24,0.41c0,0.08,0.01,0.13,0.04,0.18
			c0.03,0.05,0.09,0.11,0.17,0.17c0.17,0.12,0.45,0.22,0.8,0.29h0.01c0.32,0.06,0.62,0.15,0.88,0.27c0.26,0.13,0.49,0.3,0.64,0.54
			c0.1,0.16,0.15,0.35,0.15,0.55c0,0.41-0.23,0.77-0.55,1c-0.31,0.23-0.73,0.37-1.18,0.37c-0.69-0.01-1.27-0.36-1.63-0.65
			C59.8,75.7,59.78,75.48,59.89,75.34z"/>
		<path class="st0" d="M63.98,74.85c0-0.9,0.74-1.62,1.62-1.63c0.38,0,0.74,0.14,1.01,0.36c0.15,0.12,0.17,0.34,0.07,0.48
			c-0.13,0.16-0.33,0.18-0.48,0.06c-0.17-0.12-0.37-0.21-0.6-0.21c-0.52,0-0.94,0.43-0.94,0.93c0,0.5,0.43,0.93,0.94,0.93
			c0.23,0,0.44-0.08,0.6-0.21c0.14-0.11,0.35-0.08,0.48,0.07c0.1,0.14,0.08,0.35-0.07,0.48c-0.27,0.2-0.63,0.34-1.01,0.34
			C64.72,76.47,63.98,75.74,63.98,74.85z"/>
		<path class="st0" d="M68.54,76.11c0,0.2-0.16,0.36-0.36,0.36c-0.16,0-0.29-0.12-0.34-0.27c-0.01-0.03-0.01-0.06-0.01-0.09v-3.82
			c0-0.2,0.16-0.36,0.35-0.36c0.2,0,0.36,0.16,0.36,0.36v1.13c0.2-0.11,0.43-0.19,0.68-0.19c0.77,0,1.39,0.64,1.39,1.42v1.46
			c0,0.2-0.15,0.36-0.35,0.36s-0.35-0.16-0.35-0.36v-1.46c0-0.38-0.31-0.69-0.69-0.7c-0.37,0.01-0.67,0.32-0.68,0.7V76.11z"/>
		<path class="st0" d="M72.02,75.99c-0.27-0.29-0.44-0.69-0.44-1.14c0-0.44,0.17-0.82,0.44-1.13c0.29-0.3,0.65-0.49,1.09-0.49
			c0.42,0,0.8,0.19,1.06,0.49c0.29,0.31,0.45,0.69,0.45,1.13c0,0.45-0.16,0.86-0.45,1.14c-0.26,0.3-0.64,0.49-1.06,0.49
			C72.68,76.49,72.31,76.3,72.02,75.99z M72.28,74.85c0,0.28,0.08,0.51,0.23,0.69c0.16,0.16,0.37,0.24,0.61,0.24
			c0.22,0,0.43-0.08,0.59-0.24c0.16-0.18,0.25-0.41,0.25-0.69c0-0.27-0.09-0.5-0.25-0.67c-0.16-0.14-0.36-0.25-0.59-0.25
			c-0.24,0-0.45,0.1-0.61,0.25C72.36,74.35,72.28,74.59,72.28,74.85z"/>
		<path class="st0" d="M76,75.99c-0.27-0.29-0.44-0.69-0.44-1.14c0-0.44,0.17-0.82,0.44-1.13c0.29-0.3,0.65-0.49,1.09-0.49
			c0.42,0,0.8,0.19,1.06,0.49c0.29,0.31,0.45,0.69,0.45,1.13c0,0.45-0.16,0.86-0.45,1.14c-0.26,0.3-0.64,0.49-1.06,0.49
			C76.65,76.49,76.29,76.3,76,75.99z M76.25,74.85c0,0.28,0.08,0.51,0.23,0.69c0.16,0.16,0.37,0.24,0.61,0.24
			c0.22,0,0.43-0.08,0.59-0.24c0.16-0.18,0.25-0.41,0.25-0.69c0-0.27-0.09-0.5-0.25-0.67c-0.16-0.14-0.36-0.25-0.59-0.25
			c-0.24,0-0.45,0.1-0.61,0.25C76.34,74.35,76.25,74.59,76.25,74.85z"/>
		<path class="st0" d="M80.08,71.93c0.2,0,0.36,0.16,0.36,0.36v3.82c0,0.19-0.16,0.36-0.36,0.36c-0.19,0-0.35-0.16-0.35-0.36v-3.82
			C79.73,72.09,79.89,71.93,80.08,71.93z"/>
	</g>
</g>
</svg>
