<?xml version="1.0" encoding="utf-8"?>
<!-- Generator: Adobe Illustrator 23.0.1, SVG Export Plug-In . SVG Version: 6.00 Build 0)  -->
<svg version="1.1" width="100px" height="100px" xmlns="http://www.w3.org/2000/svg" xmlns:xlink="http://www.w3.org/1999/xlink" x="0px" y="0px"
	 viewBox="0 0 250 150" style="enable-background:new 0 0 250 150;" xml:space="preserve">
<style type="text/css">
	.st0{fill:#8A5D3B;}
	.st1{fill:#BAC639;}
</style>
<g id="Steam">
</g>
<g id="Motto">
</g>
<g id="Circles">
</g>
<g id="branch">
	<g>
		<path class="st0" d="M126.75,40.36c-1.3-7.47-2-8.59-1.75-8.74c1-0.58,7.24,49.57,10.63,70.46c0.83,5.11-19.69,8.31-20.74-0.29
			L125,31.62"/>
		<circle class="st1" cx="100.81" cy="81.58" r="8.03"/>
		<circle class="st1" cx="92.78" cy="60.49" r="8.03"/>
		<circle class="st1" cx="100.81" cy="36.73" r="8.03"/>
		<circle class="st1" cx="143.57" cy="36.73" r="8.03"/>
		<circle class="st1" cx="124.89" cy="26.56" r="3.8"/>
		<circle class="st1" cx="112.63" cy="50.29" r="3.8"/>
		<circle class="st1" cx="138.07" cy="52.46" r="3.8"/>
		<circle class="st1" cx="138.07" cy="22.57" r="2.9"/>
		<circle class="st1" cx="107.49" cy="23.66" r="2.9"/>
		<circle class="st1" cx="124.58" cy="13.54" r="8.03"/>
		<circle class="st1" cx="157.22" cy="60.49" r="8.03"/>
		<circle class="st1" cx="149.19" cy="81.58" r="8.03"/>
		<polygon class="st0" points="124.68,64.33 128.47,74.15 145.62,62.09 		"/>
		<polygon class="st0" points="121.9,73.16 125.2,64.47 104.59,61.44 		"/>
	</g>
	<g>
		<path class="st1" d="M49.69,124.38V112.8c0-0.61,0.47-1.08,1.08-1.08c0.61,0,1.1,0.47,1.1,1.08v4.71h5.08v-4.71
			c0-0.61,0.47-1.08,1.08-1.08c0.61,0,1.1,0.47,1.1,1.08v11.57c0,0.61-0.49,1.08-1.1,1.08c-0.61,0-1.08-0.47-1.08-1.08v-4.71h-5.08
			v4.71c0,0.61-0.49,1.08-1.1,1.08C50.16,125.46,49.69,124.99,49.69,124.38z"/>
		<path class="st1" d="M64.28,124.02c-0.84-0.86-1.35-2.08-1.35-3.45c0-1.33,0.51-2.49,1.35-3.43c0.88-0.92,2.02-1.49,3.37-1.49
			c1.29,0,2.47,0.57,3.28,1.49c0.88,0.94,1.37,2.1,1.37,3.43c0,1.37-0.49,2.59-1.37,3.45c-0.8,0.92-1.98,1.49-3.28,1.49
			C66.3,125.51,65.16,124.95,64.28,124.02z M65.06,120.57c0,0.84,0.26,1.53,0.71,2.08c0.49,0.47,1.14,0.73,1.88,0.73
			c0.69,0,1.31-0.26,1.8-0.73c0.49-0.55,0.76-1.24,0.76-2.08c0-0.8-0.27-1.51-0.76-2.04c-0.49-0.43-1.12-0.75-1.8-0.75
			c-0.75,0-1.39,0.31-1.88,0.75C65.32,119.06,65.06,119.77,65.06,120.57z"/>
		<path class="st1" d="M75.63,128.09v-7.49c0,0,0,0,0-0.02v-3.88c0-0.57,0.47-1.04,1.04-1.04c0.55,0,1,0.37,1.08,0.8
			c0.73-0.47,1.67-0.8,2.67-0.8c2.61,0,4.75,2.24,4.75,4.92c0,2.69-2.14,4.87-4.75,4.87c-0.98,0-1.92-0.29-2.63-0.8v3.45
			c0,0.55-0.49,1.06-1.12,1.06C76.1,129.14,75.63,128.63,75.63,128.09z M77.79,120.57c0,0.76,0.25,1.51,0.76,1.96
			c0.49,0.55,1.14,0.82,1.86,0.82c0.67,0,1.33-0.27,1.84-0.82c0.45-0.45,0.76-1.2,0.76-1.96c0-0.76-0.31-1.47-0.76-1.98
			c-0.51-0.53-1.18-0.8-1.84-0.8c-0.73,0-1.37,0.27-1.86,0.8C78.04,119.1,77.79,119.81,77.79,120.57z"/>
		<path class="st1" d="M87.69,120.55c0.02-2.67,2.1-4.9,4.79-4.9c2.55,0,4.57,1.9,4.73,4.55c0,0.02,0,0.06,0,0.1s0,0.14-0.02,0.18
			c-0.06,0.47-0.47,0.78-1.02,0.78h-6.24c0.1,0.45,0.31,0.96,0.67,1.29c0.41,0.47,1.2,0.82,1.88,0.88c0.71,0.06,1.55-0.12,2.04-0.49
			c0.41-0.43,1.22-0.37,1.47-0.06c0.25,0.27,0.45,0.86,0,1.27c-0.96,0.88-2.12,1.29-3.51,1.29
			C89.79,125.44,87.71,123.22,87.69,120.55z M89.83,119.59h5.55c-0.2-0.78-1.2-1.94-2.9-2.08
			C90.81,117.59,89.99,118.79,89.83,119.59z"/>
		<path class="st1" d="M114.5,120.57v3.85c0,0.57-0.47,1.04-1.04,1.04c-0.51,0-0.9-0.37-1.02-0.84c-0.75,0.53-1.63,0.84-2.61,0.84
			c-1.33,0-2.49-0.55-3.33-1.43c-0.84-0.9-1.33-2.12-1.33-3.45c0-1.35,0.49-2.57,1.33-3.45c0.84-0.9,2-1.47,3.33-1.47
			c0.98,0,1.86,0.33,2.61,0.86c0.12-0.49,0.51-0.86,1.02-0.86c0.57,0,1.04,0.47,1.04,1.06V120.57z M112.42,120.57
			c0-0.82-0.29-1.53-0.76-2.02c-0.47-0.53-1.14-0.8-1.82-0.8c-0.71,0-1.37,0.27-1.82,0.8c-0.47,0.49-0.75,1.2-0.75,2.02
			c0,0.8,0.27,1.51,0.75,2.02c0.45,0.49,1.12,0.76,1.82,0.76c0.69,0,1.35-0.27,1.82-0.76C112.13,122.08,112.42,121.38,112.42,120.57
			z"/>
		<path class="st1" d="M126.33,119.73v4.69c0,0.57-0.45,1.04-1.02,1.04c-0.55,0-1.04-0.47-1.04-1.04v-4.69
			c0-1.1-0.92-1.98-2.04-1.98c-1.1,0-1.96,0.88-1.96,1.98v4.69c0,0.06,0,0.12-0.04,0.2c-0.1,0.47-0.53,0.84-1.04,0.84
			c-0.59,0-1.04-0.47-1.04-1.04v-4.69v-3.04c0-0.57,0.45-1.04,1.04-1.04c0.41,0,0.78,0.24,0.96,0.61c0.59-0.37,1.32-0.61,2.08-0.61
			C124.5,115.65,126.33,117.51,126.33,119.73z"/>
		<path class="st1" d="M138.66,124.4c0,0.57-0.47,1.06-1.06,1.06c-0.53,0-0.94-0.37-1.04-0.84c-0.75,0.51-1.69,0.84-2.67,0.84
			c-2.65,0-4.77-2.24-4.77-4.88c0-2.69,2.12-4.92,4.77-4.92c0.96,0,1.9,0.31,2.63,0.82v-3.69c0-0.57,0.47-1.06,1.08-1.06
			c0.59,0,1.06,0.49,1.06,1.06v7.77c0,0,0,0,0,0.02V124.4z M133.89,117.79c-0.71,0-1.35,0.29-1.84,0.8
			c-0.49,0.49-0.78,1.2-0.78,1.98c0,0.75,0.29,1.45,0.78,1.94c0.49,0.51,1.14,0.8,1.84,0.8c0.73,0,1.35-0.29,1.84-0.8
			c0.49-0.49,0.78-1.2,0.78-1.94c0-0.78-0.29-1.49-0.78-1.98C135.25,118.08,134.62,117.79,133.89,117.79z"/>
		<path class="st1" d="M148.81,124.38V112.8c0-0.59,0.47-1.08,1.08-1.08c0.61,0,1.1,0.49,1.1,1.08v10.47h5.32
			c0.57,0,1.08,0.49,1.08,1.1c0,0.59-0.51,1.08-1.08,1.08h-6.36c-0.04,0-0.04,0-0.04,0c-0.02,0-0.02,0-0.02,0
			C149.29,125.46,148.81,124.97,148.81,124.38z"/>
		<path class="st1" d="M158.76,120.55c0.02-2.67,2.1-4.9,4.79-4.9c2.55,0,4.57,1.9,4.73,4.55c0,0.02,0,0.06,0,0.1s0,0.14-0.02,0.18
			c-0.06,0.47-0.47,0.78-1.02,0.78h-6.24c0.1,0.45,0.31,0.96,0.67,1.29c0.41,0.47,1.2,0.82,1.88,0.88c0.71,0.06,1.55-0.12,2.04-0.49
			c0.41-0.43,1.22-0.37,1.47-0.06c0.26,0.27,0.45,0.86,0,1.27c-0.96,0.88-2.12,1.29-3.51,1.29
			C160.86,125.44,158.78,123.22,158.76,120.55z M160.9,119.59h5.55c-0.2-0.78-1.2-1.94-2.9-2.08
			C161.88,117.59,161.05,118.79,160.9,119.59z"/>
		<path class="st1" d="M179.68,120.57v3.85c0,0.57-0.47,1.04-1.04,1.04c-0.51,0-0.9-0.37-1.02-0.84c-0.75,0.53-1.63,0.84-2.61,0.84
			c-1.33,0-2.49-0.55-3.34-1.43c-0.84-0.9-1.33-2.12-1.33-3.45c0-1.35,0.49-2.57,1.33-3.45c0.84-0.9,2-1.47,3.34-1.47
			c0.98,0,1.86,0.33,2.61,0.86c0.12-0.49,0.51-0.86,1.02-0.86c0.57,0,1.04,0.47,1.04,1.06V120.57z M177.6,120.57
			c0-0.82-0.29-1.53-0.76-2.02c-0.47-0.53-1.14-0.8-1.82-0.8c-0.71,0-1.37,0.27-1.82,0.8c-0.47,0.49-0.75,1.2-0.75,2.02
			c0,0.8,0.27,1.51,0.75,2.02c0.45,0.49,1.12,0.76,1.82,0.76c0.69,0,1.35-0.27,1.82-0.76C177.31,122.08,177.6,121.38,177.6,120.57z"
			/>
		<path class="st1" d="M189.57,116.69c0,0.55-0.45,1.04-1.04,1.04c-0.45,0-0.84,0.12-1.18,0.37c-0.37,0.24-0.67,0.57-0.9,0.94
			c-0.47,0.63-0.71,1.37-0.8,1.65v3.73c0,0.57-0.49,1.04-1.08,1.04c-0.57,0-1.04-0.47-1.04-1.04v-7.73c0-0.57,0.47-1.02,1.04-1.02
			c0.59,0,1.08,0.45,1.08,1.02v0.14c0.12-0.14,0.27-0.29,0.41-0.39c0.65-0.43,1.49-0.79,2.47-0.76
			C189.11,115.67,189.57,116.12,189.57,116.69z"/>
		<path class="st1" d="M200.31,119.73v4.69c0,0.57-0.45,1.04-1.02,1.04c-0.55,0-1.04-0.47-1.04-1.04v-4.69
			c0-1.1-0.92-1.98-2.04-1.98c-1.1,0-1.96,0.88-1.96,1.98v4.69c0,0.06,0,0.12-0.04,0.2c-0.1,0.47-0.53,0.84-1.04,0.84
			c-0.59,0-1.04-0.47-1.04-1.04v-4.69v-3.04c0-0.57,0.45-1.04,1.04-1.04c0.41,0,0.78,0.24,0.96,0.61c0.59-0.37,1.32-0.61,2.08-0.61
			C198.49,115.65,200.31,117.51,200.31,119.73z"/>
	</g>
	<g>
		<path class="st0" d="M55.38,143.53v-7.01c0-0.35,0.28-0.66,0.65-0.66c0.36,0,0.65,0.31,0.65,0.66v3.44l3.81-3.9
			c0.26-0.26,0.66-0.26,0.92,0c0.25,0.25,0.25,0.67,0,0.94l-2.59,2.62l2.61,3.49c0.24,0.28,0.19,0.7-0.09,0.92
			c-0.12,0.11-0.26,0.16-0.41,0.16c-0.18,0-0.35-0.08-0.48-0.24l-2.54-3.39l-1.22,1.27v1.7c0,0.36-0.28,0.66-0.65,0.66
			C55.66,144.19,55.38,143.89,55.38,143.53z"/>
		<path class="st0" d="M64.95,136.7c0,0.36-0.27,0.66-0.64,0.66c-0.35,0-0.64-0.3-0.64-0.66v-0.25c0-0.36,0.28-0.65,0.64-0.65
			c0.36,0,0.64,0.29,0.64,0.65V136.7z M64.95,138.87v4.67c0,0.36-0.27,0.65-0.64,0.65c-0.35,0-0.64-0.29-0.64-0.65v-4.67
			c0-0.38,0.28-0.66,0.64-0.66C64.68,138.21,64.95,138.49,64.95,138.87z"/>
		<path class="st0" d="M66.97,141.21c0-0.01,0-0.01,0-0.01v-4.75c0-0.35,0.28-0.65,0.64-0.65c0.36,0,0.65,0.3,0.65,0.65v2.25
			c0.44-0.31,1-0.5,1.58-0.5c1.59,0,2.86,1.37,2.86,3.01c0,1.62-1.27,2.98-2.86,2.98c-0.59,0-1.15-0.2-1.6-0.51
			c-0.06,0.29-0.31,0.51-0.62,0.51c-0.35,0-0.64-0.3-0.64-0.65V141.21z M68.25,141.21c0,0.46,0.18,0.89,0.47,1.19
			c0.29,0.31,0.67,0.49,1.11,0.49c0.42,0,0.81-0.18,1.11-0.49c0.29-0.3,0.47-0.73,0.47-1.19c0-0.48-0.18-0.91-0.47-1.21
			c-0.29-0.31-0.68-0.49-1.11-0.49c-0.44,0-0.81,0.18-1.11,0.49C68.43,140.3,68.25,140.73,68.25,141.21z"/>
		<path class="st0" d="M75.28,143.32c-0.51-0.53-0.81-1.27-0.81-2.11c0-0.81,0.31-1.52,0.81-2.1c0.53-0.56,1.21-0.91,2.02-0.91
			c0.78,0,1.48,0.35,1.97,0.91c0.53,0.58,0.82,1.28,0.82,2.1c0,0.84-0.29,1.58-0.82,2.11c-0.48,0.56-1.19,0.91-1.97,0.91
			C76.49,144.23,75.81,143.88,75.28,143.32z M75.75,141.21c0,0.51,0.15,0.94,0.42,1.27c0.29,0.29,0.68,0.44,1.13,0.44
			c0.41,0,0.79-0.16,1.08-0.44c0.29-0.34,0.46-0.76,0.46-1.27c0-0.49-0.16-0.92-0.46-1.25c-0.29-0.26-0.67-0.46-1.08-0.46
			c-0.45,0-0.84,0.19-1.13,0.46C75.9,140.28,75.75,140.72,75.75,141.21z"/>
		<path class="st0" d="M87.35,141.23v2.23c0,1.57-1.26,2.88-2.82,2.88c-0.44,0-0.87-0.11-1.24-0.3c-0.31-0.14-0.45-0.54-0.28-0.86
			c0.15-0.32,0.52-0.44,0.85-0.3c0.2,0.11,0.42,0.17,0.67,0.17c0.77,0,1.39-0.55,1.54-1.28c-0.42,0.3-0.96,0.48-1.54,0.48
			c-0.78,0-1.49-0.35-2-0.91c-0.51-0.53-0.82-1.27-0.82-2.11c0-0.83,0.32-1.57,0.82-2.13c0.51-0.54,1.22-0.89,2-0.89
			c0.61,0,1.15,0.19,1.58,0.5c0.06-0.29,0.32-0.5,0.62-0.5c0.35,0,0.62,0.29,0.62,0.64v2.39V141.23z M86.09,141.22
			c0-0.48-0.19-0.94-0.45-1.22c-0.31-0.34-0.67-0.51-1.12-0.51c-0.41,0-0.8,0.18-1.08,0.51c-0.28,0.29-0.47,0.74-0.47,1.22
			c0,0.5,0.19,0.96,0.47,1.23c0.28,0.32,0.67,0.49,1.08,0.49c0.45,0,0.81-0.17,1.12-0.49C85.9,142.18,86.09,141.72,86.09,141.22z"/>
		<path class="st0" d="M90.4,143.32c-0.51-0.53-0.81-1.27-0.81-2.11c0-0.81,0.31-1.52,0.81-2.1c0.53-0.56,1.21-0.91,2.02-0.91
			c0.78,0,1.48,0.35,1.97,0.91c0.53,0.58,0.82,1.28,0.82,2.1c0,0.84-0.29,1.58-0.82,2.11c-0.48,0.56-1.19,0.91-1.97,0.91
			C91.61,144.23,90.93,143.88,90.4,143.32z M90.87,141.21c0,0.51,0.15,0.94,0.42,1.27c0.29,0.29,0.68,0.44,1.13,0.44
			c0.41,0,0.79-0.16,1.08-0.44c0.29-0.34,0.46-0.76,0.46-1.27c0-0.49-0.16-0.92-0.46-1.25c-0.29-0.26-0.67-0.46-1.08-0.46
			c-0.45,0-0.84,0.19-1.13,0.46C91.02,140.28,90.87,140.72,90.87,141.21z"/>
		<path class="st0" d="M96.05,145.65c0-0.35,0.27-0.64,0.65-0.64v-6.16c0-0.37,0.29-0.66,0.64-0.66c0.36,0,0.64,0.29,0.64,0.66v6.16
			c0,0.71-0.56,1.29-1.27,1.29C96.33,146.31,96.05,146.04,96.05,145.65z M96.71,136.71v-0.24c0-0.38,0.29-0.66,0.65-0.66
			s0.64,0.28,0.64,0.66v0.24c0,0.35-0.28,0.66-0.64,0.66S96.71,137.06,96.71,136.71z"/>
		<path class="st0" d="M101.42,136.7c0,0.36-0.27,0.66-0.64,0.66c-0.35,0-0.64-0.3-0.64-0.66v-0.25c0-0.36,0.28-0.65,0.64-0.65
			c0.36,0,0.64,0.29,0.64,0.65V136.7z M101.42,138.87v4.67c0,0.36-0.27,0.65-0.64,0.65c-0.35,0-0.64-0.29-0.64-0.65v-4.67
			c0-0.38,0.28-0.66,0.64-0.66C101.15,138.21,101.42,138.49,101.42,138.87z"/>
		<path class="st0" d="M108.4,143.53c0,0.36-0.29,0.66-0.64,0.66c-0.36,0-0.65-0.3-0.65-0.66v-6.96c0,0,0,0,0-0.01
			c-0.01-0.2,0.08-0.42,0.26-0.55c0.29-0.2,0.69-0.14,0.89,0.14l3.8,5.36v-4.94c0-0.35,0.28-0.65,0.64-0.65s0.65,0.3,0.65,0.65v6.96
			c0,0.36-0.29,0.66-0.65,0.66c-0.19,0-0.36-0.1-0.48-0.24c-0.02-0.02-0.05-0.05-0.06-0.07l-3.77-5.32V143.53z"/>
		<path class="st0" d="M118.38,144.19c-1.34,0-2.45-1.13-2.45-2.49v-2.87c0-0.34,0.28-0.64,0.62-0.64c0.35,0,0.62,0.3,0.62,0.64
			v2.87c0,0.68,0.53,1.22,1.2,1.22c0.68,0,1.22-0.54,1.24-1.22v-2.87c0-0.34,0.26-0.64,0.61-0.64c0.33,0,0.64,0.3,0.64,0.64v2.87
			C120.86,143.07,119.73,144.19,118.38,144.19z"/>
		<path class="st0" d="M126.88,138.83c0,0.34-0.27,0.64-0.62,0.64c-0.27,0-0.51,0.07-0.71,0.23c-0.22,0.14-0.4,0.35-0.54,0.58
			c-0.28,0.38-0.42,0.84-0.48,1.01v2.28c0,0.35-0.29,0.64-0.65,0.64c-0.34,0-0.62-0.29-0.62-0.64v-4.72c0-0.35,0.28-0.62,0.62-0.62
			c0.35,0,0.65,0.28,0.65,0.62v0.08c0.07-0.08,0.16-0.18,0.25-0.24c0.39-0.26,0.89-0.48,1.48-0.47
			C126.61,138.21,126.88,138.49,126.88,138.83z"/>
		<path class="st0" d="M128.14,142.48c0.21-0.29,0.62-0.32,0.88-0.1c0.31,0.26,0.84,0.54,1.29,0.53c0.32,0,0.61-0.11,0.8-0.23
			c0.16-0.14,0.21-0.26,0.21-0.36c0-0.06-0.01-0.08-0.04-0.12c-0.01-0.04-0.06-0.08-0.15-0.14c-0.16-0.12-0.52-0.25-0.94-0.34h-0.01
			c-0.36-0.07-0.72-0.17-1.02-0.31c-0.32-0.16-0.6-0.37-0.81-0.69c-0.13-0.22-0.2-0.48-0.2-0.76c0-0.55,0.31-1.02,0.69-1.32
			c0.41-0.29,0.91-0.44,1.45-0.44c0.81,0,1.39,0.4,1.77,0.66c0.28,0.19,0.36,0.59,0.19,0.89c-0.19,0.29-0.58,0.37-0.87,0.17
			c-0.38-0.25-0.71-0.44-1.08-0.44c-0.29,0-0.55,0.1-0.71,0.22c-0.15,0.11-0.19,0.22-0.19,0.28c0,0.05,0,0.06,0.02,0.1
			c0.01,0.02,0.05,0.07,0.13,0.12c0.15,0.11,0.46,0.22,0.86,0.29l0.01,0.01h0.01c0.39,0.07,0.75,0.18,1.09,0.35
			c0.32,0.14,0.64,0.37,0.84,0.71c0.14,0.24,0.22,0.51,0.22,0.79c0,0.59-0.32,1.08-0.74,1.39c-0.42,0.3-0.95,0.48-1.53,0.48
			c-0.92-0.01-1.62-0.44-2.09-0.83C127.97,143.15,127.93,142.74,128.14,142.48z"/>
		<path class="st0" d="M133.8,141.2c0.01-1.63,1.26-3,2.87-3c1.53,0,2.74,1.16,2.84,2.78c0,0.01,0,0.04,0,0.06
			c0,0.02,0,0.08-0.01,0.11c-0.04,0.29-0.28,0.48-0.61,0.48h-3.74c0.06,0.28,0.19,0.59,0.4,0.79c0.25,0.29,0.72,0.5,1.13,0.54
			c0.42,0.04,0.93-0.07,1.22-0.3c0.25-0.26,0.73-0.23,0.88-0.04c0.15,0.17,0.27,0.53,0,0.78c-0.58,0.54-1.27,0.79-2.11,0.79
			C135.06,144.18,133.81,142.83,133.8,141.2z M135.08,140.61h3.33c-0.12-0.48-0.72-1.19-1.74-1.27
			C135.67,139.39,135.18,140.12,135.08,140.61z"/>
		<path class="st0" d="M144.76,138.83c0,0.34-0.27,0.64-0.62,0.64c-0.27,0-0.51,0.07-0.71,0.23c-0.22,0.14-0.4,0.35-0.54,0.58
			c-0.28,0.38-0.42,0.84-0.48,1.01v2.28c0,0.35-0.29,0.64-0.65,0.64c-0.34,0-0.62-0.29-0.62-0.64v-4.72c0-0.35,0.28-0.62,0.62-0.62
			c0.35,0,0.65,0.28,0.65,0.62v0.08c0.07-0.08,0.16-0.18,0.25-0.24c0.39-0.26,0.89-0.48,1.48-0.47
			C144.49,138.21,144.76,138.49,144.76,138.83z"/>
		<path class="st0" d="M150.73,138.83v2.83v1.7c0,1.61-1.25,2.86-2.81,2.86c-0.42,0-0.86-0.12-1.21-0.3
			c-0.33-0.14-0.45-0.52-0.31-0.85c0.15-0.29,0.55-0.42,0.84-0.26c0.22,0.11,0.45,0.17,0.68,0.17c0.69-0.01,1.28-0.47,1.47-1.09
			c-0.33,0.19-0.73,0.29-1.12,0.29c-1.35,0-2.46-1.14-2.46-2.52v-2.83c0-0.36,0.29-0.64,0.61-0.64c0.36,0,0.62,0.28,0.62,0.64v2.83
			c0,0.69,0.55,1.22,1.22,1.22c0.67,0,1.21-0.53,1.21-1.22v-2.83c0-0.36,0.26-0.64,0.61-0.64
			C150.44,138.2,150.73,138.47,150.73,138.83z"/>
		<path class="st0" d="M156.62,142.11c0.21-0.26,0.6-0.3,0.86-0.08c0.52,0.43,1.41,0.94,2.25,0.92c0.59,0,1.12-0.18,1.47-0.44
			c0.35-0.26,0.51-0.56,0.51-0.86c0-0.16-0.04-0.26-0.11-0.38c-0.07-0.12-0.18-0.24-0.35-0.36c-0.34-0.23-0.92-0.43-1.61-0.56h-0.02
			c-0.55-0.11-1.07-0.25-1.52-0.47c-0.45-0.22-0.84-0.51-1.09-0.94c-0.18-0.29-0.27-0.62-0.27-0.98c0-0.72,0.4-1.34,0.94-1.75
			c0.55-0.41,1.27-0.64,2.04-0.64c1.13,0,1.97,0.56,2.57,0.96c0.27,0.19,0.35,0.58,0.16,0.85c-0.18,0.29-0.55,0.37-0.84,0.18
			c-0.6-0.41-1.18-0.77-1.89-0.77c-0.53,0-1,0.17-1.32,0.41c-0.32,0.24-0.45,0.5-0.45,0.76c0,0.14,0.02,0.24,0.08,0.34
			c0.06,0.1,0.16,0.2,0.32,0.31c0.31,0.22,0.84,0.41,1.47,0.53h0.02c0.6,0.12,1.15,0.28,1.62,0.5c0.48,0.24,0.91,0.55,1.18,0.99
			c0.18,0.29,0.28,0.65,0.28,1.02c0,0.77-0.42,1.43-1.01,1.86c-0.58,0.43-1.34,0.68-2.18,0.68c-1.27-0.01-2.34-0.66-3.01-1.2
			C156.45,142.77,156.42,142.37,156.62,142.11z"/>
		<path class="st0" d="M164.18,141.21c0-1.67,1.37-3,2.99-3.01c0.71,0,1.37,0.26,1.87,0.66c0.27,0.22,0.32,0.62,0.13,0.89
			c-0.24,0.29-0.61,0.34-0.88,0.12c-0.31-0.23-0.68-0.38-1.12-0.38c-0.95,0-1.74,0.8-1.74,1.73c0,0.92,0.79,1.71,1.74,1.71
			c0.42,0,0.81-0.16,1.12-0.38c0.26-0.2,0.65-0.16,0.88,0.13c0.19,0.26,0.14,0.65-0.13,0.89c-0.51,0.37-1.16,0.64-1.87,0.64
			C165.55,144.19,164.18,142.85,164.18,141.21z"/>
		<path class="st0" d="M172.62,143.53c0,0.37-0.29,0.66-0.66,0.66c-0.29,0-0.54-0.22-0.62-0.49c-0.01-0.05-0.02-0.11-0.02-0.17
			v-7.07c0-0.37,0.29-0.66,0.65-0.66c0.36,0,0.66,0.29,0.66,0.66v2.09c0.38-0.2,0.8-0.35,1.26-0.35c1.42,0,2.57,1.19,2.57,2.62v2.71
			c0,0.37-0.28,0.66-0.65,0.66s-0.65-0.29-0.65-0.66v-2.71c0-0.71-0.56-1.28-1.27-1.29c-0.69,0.01-1.25,0.59-1.26,1.29V143.53z"/>
		<path class="st0" d="M179.07,143.32c-0.51-0.53-0.81-1.27-0.81-2.11c0-0.81,0.31-1.52,0.81-2.1c0.53-0.56,1.21-0.91,2.02-0.91
			c0.78,0,1.48,0.35,1.97,0.91c0.53,0.58,0.82,1.28,0.82,2.1c0,0.84-0.29,1.58-0.82,2.11c-0.48,0.56-1.19,0.91-1.97,0.91
			C180.28,144.23,179.6,143.88,179.07,143.32z M179.54,141.21c0,0.51,0.15,0.94,0.42,1.27c0.29,0.29,0.68,0.44,1.13,0.44
			c0.41,0,0.79-0.16,1.08-0.44c0.29-0.34,0.46-0.76,0.46-1.27c0-0.49-0.16-0.92-0.46-1.25c-0.29-0.26-0.67-0.46-1.08-0.46
			c-0.45,0-0.84,0.19-1.13,0.46C179.69,140.28,179.54,140.72,179.54,141.21z"/>
		<path class="st0" d="M186.42,143.32c-0.51-0.53-0.81-1.27-0.81-2.11c0-0.81,0.31-1.52,0.81-2.1c0.53-0.56,1.21-0.91,2.02-0.91
			c0.78,0,1.48,0.35,1.97,0.91c0.53,0.58,0.82,1.28,0.82,2.1c0,0.84-0.29,1.58-0.82,2.11c-0.48,0.56-1.19,0.91-1.97,0.91
			C187.63,144.23,186.95,143.88,186.42,143.32z M186.89,141.21c0,0.51,0.15,0.94,0.42,1.27c0.29,0.29,0.68,0.44,1.13,0.44
			c0.41,0,0.79-0.16,1.08-0.44c0.29-0.34,0.46-0.76,0.46-1.27c0-0.49-0.16-0.92-0.46-1.25c-0.29-0.26-0.67-0.46-1.08-0.46
			c-0.45,0-0.84,0.19-1.13,0.46C187.04,140.28,186.89,140.72,186.89,141.21z"/>
		<path class="st0" d="M193.96,135.8c0.36,0,0.66,0.3,0.66,0.66v7.07c0,0.36-0.29,0.66-0.66,0.66c-0.35,0-0.65-0.3-0.65-0.66v-7.07
			C193.31,136.1,193.61,135.8,193.96,135.8z"/>
	</g>
</g>
</svg>
